<!--Added some extra flair with extra circles on each point of the triangle-->
<svg viewBox="0 0 300 300" xmlns="http://www.w3.org/2000/svg">
<style>
    
  path {
      transform-origin: 150px 150px;
      animation: spin-clockwise 8s linear infinite;
    }
    
    circle {
      transform-origin: 150px 150px;
      animation: spin-counterclockwise 9s linear infinite;
    }
    
    @keyframes spin-clockwise {
      0% { transform: rotate(0deg); }
      100% { transform: rotate(360deg); }
    }
    
    @keyframes spin-counterclockwise {
      0% { transform: rotate(0deg); }
      100% { transform: rotate(-360deg); }
    }
    
   text {
      mix-blend-mode: difference;
      -webkit-text-stroke-width: 1px;
      -webkit-text-stroke-color: white;
      fill: white;
    }

   
     
  </style>
  <rect x="0" y="0" width="300" height="300" fill="none"/>
  <circle cx="150" cy="150" r="130" fill="#fff" />
  <path d="M20 150 A130 130 0 0 1 280 150" stroke="black" stroke-width="8" fill="black" opacity="0.8"/>
  <path d="M130 130 L130 170 L150 150 L170 130 L170 170" fill="#bfbfbf"/>
  <path d="M130 130 L130 170 L150 150 L170 130 L170 170" stroke="#000000" stroke-width="10" fill="none"/>
  <path d="M120 120 L120 180 L150 150 L180 120 L180 180" fill="#bfbfbf"/>
  <path d="M120 120 L120 180 L150 150 L180 120 L180 180" stroke="#000000" stroke-width="10" fill="none"/>
  <text x="150" y="240" text-anchor="middle" fill="#000000" font-size="30" font-family="mono">IC LOGOS</text>
  <circle id="circle1" cx="75" cy="85" r="25" fill="#E84A5F" opacity="0.7"/>
  <circle cx="235" cy="150" r="25" fill="#FF847C" opacity="0.7"/>
  <circle cx="150" cy="60" r="25" fill="#FECE44" opacity="0.7"/>
  <circle cx="65" cy="150" r="25" fill="#FFC75F" opacity="0.7"/>
  <circle cx="225" cy="85" r="25" fill="#46B5D1" opacity="0.7"/>
 
</svg>